<?xml version="1.0" standalone="no"?>
<!DOCTYPE svg PUBLIC "-//W3C//DTD SVG 20010904//EN"
 "http://www.w3.org/TR/2001/REC-SVG-20010904/DTD/svg10.dtd">
<svg version="1.0" xmlns="http://www.w3.org/2000/svg"
 width="571.000000pt" height="571.000000pt" viewBox="0 0 571.000000 571.000000"
 preserveAspectRatio="xMidYMid meet">
<metadata>
Created by potrace 1.11, written by Peter Selinger 2001-2013
</metadata>
<g transform="translate(0.000000,571.000000) scale(0.100000,-0.100000)"
fill="#000000" stroke="none">
<path d="M856 5200 c-1 -3 -2 -1060 -2 -2350 l1 -2345 286 0 285 0 0 2117 c-1
1165 2 2118 5 2118 6 0 83 -131 184 -309 11 -20 45 -79 75 -131 30 -52 60
-103 65 -112 6 -10 89 -154 185 -320 96 -166 188 -324 204 -352 15 -28 119
-208 231 -401 111 -192 280 -485 375 -650 95 -165 229 -397 298 -515 69 -118
136 -234 149 -258 13 -23 53 -93 89 -154 35 -61 64 -113 64 -115 0 -3 8 -17
19 -31 10 -15 31 -49 45 -77 15 -27 36 -63 46 -80 10 -16 25 -41 33 -55 44
-81 183 -319 199 -343 11 -15 16 -27 12 -27 -4 0 0 -8 8 -17 8 -10 27 -39 42
-65 15 -27 29 -48 31 -48 2 0 112 63 246 140 133 77 245 140 248 140 3 0 6
-102 5 -228 l-1 -227 286 0 286 0 0 2350 0 2350 -285 0 -286 0 1 -2117 c0
-1165 -2 -2118 -5 -2118 -5 0 -58 88 -128 210 -11 19 -43 75 -71 123 -28 49
-51 93 -51 98 0 5 -4 9 -10 9 -5 0 -10 4 -10 9 0 4 -54 102 -120 216 -66 114
-120 208 -120 210 0 1 -24 43 -54 92 -29 49 -64 109 -78 133 -31 55 -42 75
-158 275 -51 88 -101 174 -110 190 -9 17 -99 171 -199 343 -99 173 -181 318
-181 323 0 5 -4 9 -10 9 -5 0 -10 4 -10 10 0 5 -22 47 -49 92 -52 89 -416 720
-449 778 -10 19 -77 134 -147 255 -70 121 -137 238 -150 260 -81 144 -238 411
-245 419 -4 4 -50 -17 -102 -47 -296 -175 -392 -227 -397 -219 -3 6 -6 107 -5
226 0 119 -2 217 -5 217 -19 4 -563 3 -565 -1z"/>
</g>
</svg>
