<?xml version="1.0" standalone="no"?>
<!DOCTYPE svg PUBLIC "-//W3C//DTD SVG 20010904//EN"
 "http://www.w3.org/TR/2001/REC-SVG-20010904/DTD/svg10.dtd">
<svg version="1.0" xmlns="http://www.w3.org/2000/svg"
 width="221.000000pt" height="221.000000pt" viewBox="0 0 221.000000 221.000000"
 preserveAspectRatio="xMidYMid meet">
<metadata>
Created by potrace 1.11, written by Peter Selinger 2001-2013
</metadata>
<g transform="translate(0.000000,221.000000) scale(0.100000,-0.100000)"
fill="#000000" stroke="none">
<path d="M1668 1313 l-3 -894 -130 225 c-71 125 -135 234 -140 244 -6 9 -37
64 -70 122 -70 122 -66 115 -129 222 -26 46 -60 103 -74 128 -27 48 -249 433
-339 588 -45 77 -57 91 -71 83 -9 -5 -48 -28 -87 -50 -38 -23 -73 -41 -77 -41
-5 0 -8 34 -8 75 l0 75 -120 0 -120 0 0 -1035 0 -1035 120 0 120 0 1 933 c0
624 3 927 10 917 6 -8 121 -206 256 -440 259 -447 265 -458 322 -558 20 -35
41 -71 46 -80 14 -23 69 -119 93 -162 11 -19 63 -110 116 -202 l97 -167 92 54
92 54 3 -134 c1 -74 6 -135 10 -136 10 -1 193 -1 215 0 16 1 17 56 15 1054
l-3 1052 -117 1 -118 1 -2 -894z"/>
</g>
</svg>
